<svg xmlns="http://www.w3.org/2000/svg" version="1.1" xmlns:xlink="http://www.w3.org/1999/xlink" xmlns:svgjs="http://svgjs.dev/svgjs" width="2000" height="1999" viewBox="0 0 2000 1999"><g transform="matrix(1,0,0,1,-0.431486880466764,-0.4312711370263287)"><svg viewBox="0 0 343 343" data-background-color="#f9f9f9" preserveAspectRatio="xMidYMid meet" height="1999" width="2000" xmlns="http://www.w3.org/2000/svg" xmlns:xlink="http://www.w3.org/1999/xlink"><g id="tight-bounds" transform="matrix(1,0,0,1,0.0740000000000407,0.07400000000001228)"><svg viewBox="0 0 342.85155851775386 342.85155851775386" height="342.85155851775386" width="342.85155851775386"><g><svg></svg></g><g><svg viewBox="0 0 342.85155851775386 342.85155851775386" height="342.85155851775386" width="342.85155851775386"><g><path d="M0 171.426c0-94.676 76.75-171.426 171.426-171.426 94.676 0 171.426 76.75 171.426 171.426 0 94.676-76.75 171.426-171.426 171.426-94.676 0-171.426-76.75-171.426-171.426zM171.426 339.479c92.813 0 168.053-75.24 168.053-168.053 0-92.813-75.24-168.053-168.053-168.053-92.813 0-168.053 75.24-168.053 168.053 0 92.813 75.24 168.053 168.053 168.053z" data-fill-palette-color="tertiary" fill="#030303" stroke="transparent"></path><ellipse rx="164.56874808852186" ry="164.56874808852186" cx="171.42577925887693" cy="171.42577925887693" fill="#030303" stroke="transparent" stroke-width="0" fill-opacity="1" data-fill-palette-color="tertiary"></ellipse></g><g transform="matrix(1,0,0,1,64.84655864529837,110.83663875399138)"><svg viewBox="0 0 213.1584412271571 121.1782810097711" height="121.1782810097711" width="213.1584412271571"><g><svg viewBox="0 0 213.1584412271571 121.1782810097711" height="121.1782810097711" width="213.1584412271571"><g><svg viewBox="0 0 213.1584412271571 121.1782810097711" height="121.1782810097711" width="213.1584412271571"><g transform="matrix(1,0,0,1,0,83.7772999501055)"><svg viewBox="0 0 213.1584412271571 37.40098105966559" height="37.40098105966559" width="213.1584412271571"><g id="textblocktransform"><svg viewBox="0 0 213.1584412271571 37.40098105966559" height="37.40098105966559" width="213.1584412271571" id="textblock"><g><svg viewBox="0 0 213.1584412271571 37.40098105966559" height="37.40098105966559" width="213.1584412271571"><g transform="matrix(1,0,0,1,0,0)"><svg width="213.1584412271571" viewBox="2.45 -22.65 131.44302600783095 22.9" height="37.40098105966559" data-palette-color="#f9f9f9"><g transform="matrix(1,0,0,1,0,0)"><g><svg width="3.0796100048943376" viewBox="2.52 -36.86 32.73 37.36" height="3.515734916059515" data-palette-color="#f9f9f9" id="scriptelement" x="128.91757100538376" y="-5.193517458029757"><path d="M35.25-23.63L35.25-23.63 27.47-23.63Q27.25-25.14 26.6-26.32 25.94-27.5 24.91-28.34 23.88-29.17 22.54-29.62 21.2-30.06 19.64-30.06L19.64-30.06Q16.81-30.06 14.72-28.67 12.62-27.27 11.47-24.62 10.32-21.96 10.32-18.18L10.32-18.18Q10.32-14.29 11.48-11.65 12.64-9 14.74-7.65 16.83-6.3 19.58-6.3L19.58-6.3Q21.13-6.3 22.45-6.71 23.77-7.12 24.8-7.91 25.83-8.7 26.52-9.84 27.2-10.97 27.47-12.43L27.47-12.43 35.25-12.39Q34.94-9.89 33.74-7.57 32.55-5.26 30.53-3.44 28.52-1.62 25.74-0.56 22.96 0.5 19.46 0.5L19.46 0.5Q14.6 0.5 10.77-1.7 6.94-3.91 4.73-8.08 2.52-12.25 2.52-18.18L2.52-18.18Q2.52-24.13 4.76-28.3 7-32.48 10.83-34.67 14.67-36.86 19.46-36.86L19.46-36.86Q22.62-36.86 25.33-35.97 28.04-35.09 30.13-33.39 32.23-31.69 33.55-29.24 34.87-26.79 35.25-23.63Z" opacity="1" transform="matrix(1,0,0,1,0,0)" fill="#f9f9f9" class="undefined-123" data-fill-palette-color="quaternary" id="tk-123"></path></svg></g></g><path d="M127.022-3.436C127.022-5.333 128.56-6.871 130.457-6.871 132.355-6.871 133.893-5.333 133.893-3.436 133.893-1.538 132.355 0 130.457 0 128.56 0 127.022-1.538 127.022-3.436ZM130.457-0.553C132.05-0.553 133.34-1.843 133.34-3.436 133.34-5.028 132.05-6.318 130.457-6.318 128.865-6.318 127.575-5.028 127.575-3.436 127.575-1.843 128.865-0.553 130.457-0.553Z" fill="#f9f9f9" id="scriptcircle" data-fill-palette-color="quaternary"></path><path d="M12.35-19.5L12.35-19.5 8.95-19.5Q5.95-19.5 5.95-16.35L5.95-16.35 5.95-14.45Q5.95-11.45 8.9-11.45L8.9-11.45 12.45-11.45Q15.4-11.45 15.4-15.15L15.4-15.15 15.4-17Q15.4-19.5 12.35-19.5ZM15.4-2.7L15.4-2.7 15.4-7.1Q15.4-9.55 12.35-9.55L12.35-9.55 8.95-9.55Q5.95-9.55 5.95-7.1L5.95-7.1 5.95-2.65Q5.95-0.05 4.2-0.05L4.2-0.05Q2.45-0.05 2.45-2.4L2.45-2.4 2.45-17.85Q2.45-21.45 6.1-21.45L6.1-21.45 14.75-21.45Q18.9-21.45 18.9-17.85L18.9-17.85 18.9-2.45Q18.9-0.05 17.15-0.05L17.15-0.05Q15.4-0.05 15.4-2.7ZM25.8 0.25L25.8 0.25Q24 0.25 24-2.15L24-2.15 24-20.1Q24-22.4 25.8-22.4L25.8-22.4Q27.55-22.4 27.55-20.1L27.55-20.1 27.55-2.15Q27.55 0.25 25.8 0.25ZM39.45-15.6L39.45-15.6 41.05-15.6Q42.89-15.6 43.87-14.7 44.84-13.8 44.84-12.2L44.84-12.2 44.84-3.45Q44.84-1.6 43.84-0.78 42.84 0.05 40.95 0.05L40.95 0.05 36.8 0.05Q32.84 0.05 32.84-3.5L32.84-3.5 32.84-19.65Q32.84-22.05 34.74-22.05L34.74-22.05Q36.49-22.05 36.49-19.45L36.49-19.45 36.55-17.7Q36.55-15.6 39.45-15.6ZM41.24-4.75L41.24-4.75 41.24-10.8Q41.24-13.85 39.14-13.85L39.14-13.85 38.49-13.85Q36.55-13.85 36.55-10.55L36.55-10.55 36.49-4.7Q36.49-1.65 38.55-1.65L38.55-1.65 39.24-1.65Q41.24-1.65 41.24-4.75ZM57.94-4.65L57.94-4.65 57.94-13.1Q57.94-15.7 59.69-15.7L59.69-15.7Q61.54-15.7 61.54-13.4L61.54-13.4 61.54-3.5Q61.54-1.6 60.57-0.8 59.59 0 57.74 0L57.74 0 53.44 0Q51.44 0 50.49-0.78 49.54-1.55 49.54-3.4L49.54-3.4 49.54-13.35Q49.54-15.7 51.44-15.7L51.44-15.7Q53.19-15.7 53.19-13.1L53.19-13.1 53.19-4.6Q53.19-1.75 55.24-1.75L55.24-1.75 55.94-1.75Q57.94-1.75 57.94-4.65ZM77.59-11.6L77.59-11.6 77.59-2.5Q77.59 0.15 75.79 0.15L75.79 0.15Q73.94 0.15 73.94-2.5L73.94-2.5 73.94-11.6Q73.94-13.85 72.04-13.85L72.04-13.85Q70.49-13.85 70.49-11.6L70.49-11.6 70.49-2.5Q70.49 0.15 68.59 0.15L68.59 0.15Q66.74 0.15 66.74-2.15L66.74-2.15 66.74-12.15Q66.74-15.6 70.79-15.6L70.79-15.6 81.04-15.6Q84.89-15.5 84.89-12.2L84.89-12.2 84.89-2.25Q84.89 0.15 83.04 0.15L83.04 0.15Q81.19 0.15 81.19-2.5L81.19-2.5 81.19-11.6Q81.19-13.85 79.44-13.85L79.44-13.85Q77.59-13.85 77.59-11.6ZM92.34-19.95L92.34-19.95Q90.44-19.95 90.44-21.3L90.44-21.3Q90.44-22.65 92.34-22.65L92.34-22.65Q94.14-22.65 94.14-21.3L94.14-21.3Q94.14-19.95 92.34-19.95ZM92.34 0.2L92.34 0.2Q90.49 0.2 90.49-2.1L90.49-2.1 90.49-13.15Q90.49-15.5 92.34-15.5L92.34-15.5Q94.09-15.5 94.09-13.25L94.09-13.25 94.09-2.15Q94.09 0.2 92.34 0.2ZM106.59-7.1L106.59-7.1 103.34-7.1Q99.19-7.1 99.19-9.95L99.19-9.95 99.19-12.05Q99.19-15.6 103.19-15.6L103.19-15.6 108.79-15.6Q110.69-15.6 110.69-14.8L110.69-14.8Q110.69-13.85 108.69-13.85L108.69-13.85 104.23-13.85Q102.79-13.85 102.79-12.2L102.79-12.2 102.79-10Q102.79-8.7 104.23-8.7L104.23-8.7 107.09-8.7Q110.89-8.7 111.19-5.6L111.19-5.6 111.19-3.6Q111.19 0 107.24 0L107.24 0 101.04 0Q99.19 0 99.19-0.95L99.19-0.95Q99.19-1.85 101.19-1.85L101.19-1.85 106.59-1.85Q108.04-1.85 108.04-3.45L108.04-3.45 108.04-5.7Q108.04-7.1 106.59-7.1ZM117.78-22.5L117.78-22.5Q119.53-22.5 119.53-19.9L119.53-19.9 119.53-18.25Q119.53-15.6 122.43-15.6L122.43-15.6 123.38-15.6Q125.38-15.6 125.38-14.75L125.38-14.75Q125.38-13.85 123.38-13.85L123.38-13.85 122.43-13.85Q119.53-13.85 119.53-10.35L119.53-10.35 119.53-4.85Q119.53-1.9 122.38-1.9L122.38-1.9 123.58-1.9Q125.53-1.9 125.53-0.95L125.53-0.95Q125.53 0 123.73 0L123.73 0 119.58 0Q115.93 0 115.93-3.65L115.93-3.65 115.93-20.15Q115.93-22.5 117.78-22.5Z" opacity="1" transform="matrix(1,0,0,1,0,0)" fill="#f9f9f9" class="wordmark-text-0" data-fill-palette-color="quaternary" id="text-0"></path></svg></g></svg></g></svg></g></svg></g><g transform="matrix(1,0,0,1,32.84676481858163,0)"><svg viewBox="0 0 147.46491158999385 74.94782594546389" height="74.94782594546389" width="147.46491158999385"><g><svg xmlns="http://www.w3.org/2000/svg" xmlns:xlink="http://www.w3.org/1999/xlink" version="1.1" x="0" y="0" viewBox="3.6 20 72.80000000000001 37" enable-background="new 0 0 80 80" xml:space="preserve" height="74.94782594546389" width="147.46491158999385" class="icon-icon-0" data-fill-palette-color="quaternary" id="icon-0"><g fill="#f9f9f9" data-fill-palette-color="quaternary"><path fill="#f9f9f9" d="M65 57H16V20H65zM18 55H63V22H18z" data-fill-palette-color="quaternary"></path></g><g fill="#f9f9f9" data-fill-palette-color="quaternary"><path fill="#f9f9f9" d="M49.8 48H31.2C30.4 48 29.7 47.6 29.4 46.8 29.1 46.1 29.2 45.3 29.7 44.7L33.3 40.6C34 39.8 35.4 39.7 36.2 40.5L37.9 42.2 38 42.1 42.6 37.5C43.4 36.5 45 36.6 45.7 37.6L51.3 44.8C51.8 45.4 51.8 46.2 51.5 46.9S50.5 48 49.8 48M34.8 41.9L31.2 46H49.8L44.2 38.8 44.1 38.9 39.5 43.5C38.8 44.4 37.4 44.4 36.6 43.6z" data-fill-palette-color="quaternary"></path></g><g fill="#f9f9f9" data-fill-palette-color="quaternary"><path fill="#f9f9f9" d="M34 37C31.8 37 30 35.2 30 33S31.8 29 34 29 38 30.8 38 33 36.2 37 34 37M34 31C32.9 31 32 31.9 32 33S32.9 35 34 35 36 34.1 36 33 35.1 31 34 31" data-fill-palette-color="quaternary"></path></g><g fill="#f9f9f9" data-fill-palette-color="quaternary"><polygon fill="#f9f9f9" points="10.3,45.7 3.6,39 10.3,32.3 11.7,33.7 6.4,39 11.7,44.3  " data-fill-palette-color="quaternary"></polygon></g><g fill="#f9f9f9" data-fill-palette-color="quaternary"><polygon fill="#f9f9f9" points="69.7,45.7 68.3,44.3 73.6,39 68.3,33.7 69.7,32.3 76.4,39  " data-fill-palette-color="quaternary"></polygon></g></svg></g></svg></g><g></g></svg></g></svg></g></svg></g></svg></g><defs></defs></svg><rect width="342.85155851775386" height="342.85155851775386" fill="none" stroke="none" visibility="hidden"></rect></g></svg></g></svg>